<svg xmlns="http://www.w3.org/2000/svg" xmlns:xlink="http://www.w3.org/1999/xlink" viewBox="0 0 220.84 188.3"><defs><linearGradient id="linear-gradient" x1="-58.83" y1="92.2" x2="170.82" y2="92.2" gradientTransform="matrix(-0.75, 0.66, -0.66, -0.75, 199.8, 122.63)" gradientUnits="userSpaceOnUse"><stop offset="0.08" stop-color="#9cf"/><stop offset="0.92" stop-color="#99f"/></linearGradient><clipPath id="clip-path"><path d="M46.74,125.2a41.82,41.82,0,0,0,10.16.27,16.78,16.78,0,0,1,17.81,12c3.52,12.23,12.31,27.13,34.13,29.62a41.48,41.48,0,0,0,41.59-22.25A17,17,0,0,1,167,135.66l.34,0a30.66,30.66,0,1,0-7.95-59.51,16.2,16.2,0,0,1-17.73-4.82A41.51,41.51,0,0,0,98.5,58.53a16.82,16.82,0,0,1-16.58-4A41.48,41.48,0,1,0,46.74,125.2Z" style="fill:none"/></clipPath><linearGradient id="linear-gradient-2" x1="-309.15" y1="6.54" x2="-118.76" y2="6.54" gradientTransform="translate(-109.01 89.72) rotate(-173.5)" gradientUnits="userSpaceOnUse"><stop offset="0" stop-color="#96f"/><stop offset="1" stop-color="#77a0f6"/></linearGradient><radialGradient id="radial-gradient" cx="92.4" cy="99.44" r="68.45" gradientTransform="matrix(0.86, -0.51, 0.51, 0.86, -40.19, 77.84)" gradientUnits="userSpaceOnUse"><stop offset="0.08" stop-color="#a5c6ff"/><stop offset="0.92" stop-color="#fff"/></radialGradient><radialGradient id="radial-gradient-2" cx="159.96" cy="107.79" r="68.45" xlink:href="#radial-gradient"/><radialGradient id="radial-gradient-3" cx="157.9" cy="99.14" r="68.45" xlink:href="#radial-gradient"/><radialGradient id="radial-gradient-4" cx="88.36" cy="86.33" r="68.45" xlink:href="#radial-gradient"/><linearGradient id="linear-gradient-3" x1="23.96" y1="73.05" x2="200.27" y2="73.05" gradientTransform="matrix(0.86, -0.51, 0.51, 0.86, -40.19, 77.84)" gradientUnits="userSpaceOnUse"><stop offset="0" stop-color="#99f"/><stop offset="1" stop-color="#96f"/></linearGradient><radialGradient id="radial-gradient-5" cx="115.05" cy="167.39" r="20.91" gradientTransform="translate(71.78 -31.06) rotate(22.2)" gradientUnits="userSpaceOnUse"><stop offset="0" stop-color="#35294d"/><stop offset="0.01" stop-color="#3a2e51"/><stop offset="0.16" stop-color="#6d657f"/><stop offset="0.31" stop-color="#9a94a6"/><stop offset="0.45" stop-color="#bebac6"/><stop offset="0.6" stop-color="#dbd8df"/><stop offset="0.74" stop-color="#efeef1"/><stop offset="0.87" stop-color="#fbfbfb"/><stop offset="1" stop-color="#fff"/></radialGradient><linearGradient id="linear-gradient-4" x1="119.19" y1="188.62" x2="112.62" y2="158.85" gradientUnits="userSpaceOnUse"><stop offset="0" stop-color="#96f"/><stop offset="1" stop-color="#84aaf6"/></linearGradient><radialGradient id="radial-gradient-6" cx="116.79" cy="20.91" r="20.91" gradientTransform="translate(49 -76.46) rotate(45)" gradientUnits="userSpaceOnUse"><stop offset="0" stop-color="#3f5a3d"/><stop offset="0.12" stop-color="#677c65"/><stop offset="0.27" stop-color="#95a494"/><stop offset="0.42" stop-color="#bbc5ba"/><stop offset="0.57" stop-color="#d9ded8"/><stop offset="0.72" stop-color="#eef0ee"/><stop offset="0.87" stop-color="#fbfbfb"/><stop offset="1" stop-color="#fff"/></radialGradient><linearGradient id="linear-gradient-5" x1="106.79" y1="-11.79" x2="124.6" y2="47.6" gradientUnits="userSpaceOnUse"><stop offset="0" stop-color="#96f"/><stop offset="1" stop-color="#7aa3f6"/></linearGradient></defs><g style="isolation:isolate"><g id="Layer_2" data-name="Layer 2"><g id="OBJECTS"><path d="M81.06,173.22a49.33,49.33,0,0,0,16.56-26.17A19.38,19.38,0,0,1,117.7,132.2a30.86,30.86,0,0,0,30.13-17.62A19.21,19.21,0,0,1,162,104a49.56,49.56,0,1,0-55.18-66.17,19.43,19.43,0,0,1-23.34,12c-12.07-3.29-26.62-4.93-34.89,2.29A37.89,37.89,0,0,0,36.15,74.21,27.68,27.68,0,0,1,23.39,92.87a49.56,49.56,0,1,0,57.67,80.35Z" style="opacity:0.2;fill:url(#linear-gradient)"/><g style="clip-path:url(#clip-path)"><path d="M46.74,125.2a41.82,41.82,0,0,0,10.16.27,16.78,16.78,0,0,1,17.81,12c3.52,12.23,12.31,27.13,34.13,29.62a41.48,41.48,0,0,0,41.59-22.25A17,17,0,0,1,167,135.66l.34,0a30.66,30.66,0,1,0-7.95-59.51,16.2,16.2,0,0,1-17.73-4.82A41.51,41.51,0,0,0,98.5,58.53a16.82,16.82,0,0,1-16.58-4A41.48,41.48,0,1,0,46.74,125.2Z" style="fill:url(#linear-gradient-2)"/><circle cx="90.05" cy="116.08" r="68.45" style="mix-blend-mode:multiply;fill:url(#radial-gradient)"/><circle cx="152.39" cy="88.73" r="68.45" style="mix-blend-mode:multiply;fill:url(#radial-gradient-2)"/><circle cx="146.2" cy="82.34" r="68.45" style="mix-blend-mode:multiply;fill:url(#radial-gradient-3)"/><circle cx="79.88" cy="106.88" r="68.45" style="mix-blend-mode:multiply;fill:url(#radial-gradient-4)"/></g><path d="M110.81,40.28l0,0a4.38,4.38,0,0,1-5.93-1.45c-6.13-10-25.13-33.87-54.5-16.4A39,39,0,0,0,33.56,69.08a4.24,4.24,0,0,1-3.49,5.62,27,27,0,0,0-9.57,50.64,23.54,23.54,0,0,1,10.77,11.22,39.58,39.58,0,0,0,4,7A39,39,0,0,0,101,140.16a16.26,16.26,0,0,1,19.39-7.27,53.38,53.38,0,0,0,41.33-3.66c24.89-13.11,33.86-43.66,20.81-68.58A51.3,51.3,0,0,0,110.81,40.28Z" style="fill:url(#linear-gradient-3)"/><circle cx="115.05" cy="167.39" r="20.91" transform="translate(-54.72 55.88) rotate(-22.2)" style="mix-blend-mode:multiply;fill:url(#radial-gradient-5)"/><circle cx="114.11" cy="165.61" r="12.75" style="fill:url(#linear-gradient-4)"/><g style="mix-blend-mode:overlay"><path d="M175.15,143.43a33.83,33.83,0,0,0,30.51-25,33.1,33.1,0,0,0,.68-13.9,33.49,33.49,0,0,0-28-27.61c-.58-.08-1.15-.2-1.73-.25l-1.75-.09c-.58,0-1.16-.07-1.75-.08a4.35,4.35,0,0,1-1.78-.35,4.25,4.25,0,0,1-2.41-2.63,5.86,5.86,0,0,1-.2-1.8L168.69,70a61.71,61.71,0,0,0-37.87-54.53,62.26,62.26,0,0,0-13.45-3.84A62.09,62.09,0,0,0,89.65,13.4L88,13.89c-.55.18-1.09.41-1.64.61-1.09.42-2.19.8-3.26,1.25a65.32,65.32,0,0,0-6.25,3.16,68.49,68.49,0,0,0-5.89,3.78,69.25,69.25,0,0,0-10.26,9.5,69.06,69.06,0,0,0-4.21,5.58,63.89,63.89,0,0,0-3.63,6c-.53,1-1,2.11-1.51,3.16-.24.53-.51,1.05-.72,1.59L50,50.14c-.86,2.16-1.57,4.42-2.51,6.59A48,48,0,0,1,44.21,63,43.75,43.75,0,0,1,35,73.77c-1.84,1.51-3.69,2.88-5.36,4.52-.88.76-1.64,1.65-2.46,2.48S25.7,82.53,25,83.42A48.78,48.78,0,0,0,18,95.49a47.65,47.65,0,0,0,62.73,61.38.5.5,0,0,1,.66.27.49.49,0,0,1-.27.65h0a48.4,48.4,0,0,1-27.88,2.86A48.6,48.6,0,0,1,15,123.09,48.67,48.67,0,0,1,17.29,95.2,49.46,49.46,0,0,1,24.34,83c.77-.91,1.51-1.83,2.31-2.7s1.6-1.74,2.5-2.51c1.69-1.65,3.62-3.08,5.41-4.54a43.11,43.11,0,0,0,9-10.55,47.86,47.86,0,0,0,3.21-6.2c.93-2.13,1.64-4.36,2.51-6.56L50,48.24c.22-.55.5-1.07.74-1.61.51-1.06,1-2.14,1.53-3.19a65.31,65.31,0,0,1,3.68-6,70.73,70.73,0,0,1,4.27-5.64,69.38,69.38,0,0,1,5-5.05,67,67,0,0,1,5.43-4.52,65.21,65.21,0,0,1,6-3.81,67.88,67.88,0,0,1,6.32-3.18c1.08-.45,2.2-.84,3.3-1.26.55-.2,1.1-.43,1.66-.61l1.7-.49a60.14,60.14,0,0,1,13.89-2.45,58.85,58.85,0,0,1,14.09.72A63.1,63.1,0,0,1,131,15a61.86,61.86,0,0,1,38.06,55l0,1.76a5.85,5.85,0,0,0,.19,1.69,4,4,0,0,0,3.83,2.73c.59,0,1.18,0,1.77.08l1.76.1c.59,0,1.17.17,1.75.25a33.78,33.78,0,0,1,28.2,27.92,33.13,33.13,0,0,1-.71,14,34,34,0,0,1-30.74,25.07.09.09,0,0,1-.09-.09A.09.09,0,0,1,175.15,143.43Z" style="fill:#fff"/></g><path d="M112.36,45h0a.91.91,0,0,1-1.28,0l-5-5a.91.91,0,0,1,0-1.28h0a.91.91,0,0,1,1.29,0l5,5A.91.91,0,0,1,112.36,45Z" style="fill:#fff"/><path d="M106.08,45h0a.92.92,0,0,1,0-1.29l5-5a.89.89,0,0,1,1.28,0h0a.89.89,0,0,1,0,1.28l-5,5A.92.92,0,0,1,106.08,45Z" style="fill:#fff"/><path d="M26.5,129.85h0a.68.68,0,0,1-.95,0l-3.68-3.69a.66.66,0,0,1,0-1h0a.66.66,0,0,1,.94,0l3.69,3.69A.68.68,0,0,1,26.5,129.85Z" style="fill:#fff"/><path d="M21.87,129.85h0a.66.66,0,0,1,0-.95l3.68-3.69a.68.68,0,0,1,.95,0h0a.68.68,0,0,1,0,1l-3.69,3.69A.66.66,0,0,1,21.87,129.85Z" style="fill:#fff"/><path d="M183.33,99.89h0a.68.68,0,0,1-1,0L178.7,96.2a.66.66,0,0,1,0-.94h0a.68.68,0,0,1,1,0l3.68,3.68A.68.68,0,0,1,183.33,99.89Z" style="fill:#fff"/><path d="M178.7,99.89h0a.68.68,0,0,1,0-1l3.68-3.68a.68.68,0,0,1,1,0h0a.66.66,0,0,1,0,.94l-3.68,3.69A.68.68,0,0,1,178.7,99.89Z" style="fill:#fff"/><circle cx="116.79" cy="20.91" r="20.91" transform="translate(19.42 88.71) rotate(-45)" style="mix-blend-mode:multiply;fill:url(#radial-gradient-6)"/><circle cx="115.13" cy="16.03" r="12.75" style="fill:url(#linear-gradient-5)"/></g></g></g></svg>