<?xml version="1.0" encoding="utf-8"?>
<!-- Generator: Adobe Illustrator 25.2.1, SVG Export Plug-In . SVG Version: 6.00 Build 0)  -->
<svg version="1.1" id="Layer_1" xmlns="http://www.w3.org/2000/svg" xmlns:xlink="http://www.w3.org/1999/xlink" x="0px" y="0px"
	 viewBox="0 0 1920 1080" style="enable-background:new 0 0 1920 1080;" xml:space="preserve">
<style type="text/css">
	.st0{opacity:0.5;}
	.st1{fill:url(#SVGID_1_);}
	.st2{opacity:0.8;fill:url(#SVGID_2_);enable-background:new    ;}
	.st3{opacity:0.2;fill:url(#SVGID_3_);enable-background:new    ;}
	.st4{opacity:0.2;fill:url(#SVGID_4_);enable-background:new    ;}
	.st5{opacity:0.2;fill:url(#SVGID_5_);enable-background:new    ;}
	.st6{opacity:0.5;fill:url(#SVGID_6_);enable-background:new    ;}
	.st7{opacity:0.5;fill:url(#SVGID_7_);enable-background:new    ;}
	.st8{fill:url(#SVGID_8_);}
	.st9{fill:url(#SVGID_9_);}
</style>
<g>
	<g class="st0">
		
			<image style="overflow:visible;enable-background:new    ;" width="2234" height="954" xlink:href="EC3D5DFE.png"  transform="matrix(0.8463 0 0 0.9019 14.6326 167.8799)">
		</image>
	</g>
	
		<linearGradient id="SVGID_1_" gradientUnits="userSpaceOnUse" x1="442.1664" y1="633.4467" x2="1745.0986" y2="633.4467" gradientTransform="matrix(0.6062 0.7953 -0.7953 0.6062 760.7346 -711.7483)">
		<stop  offset="0" style="stop-color:#9999FF"/>
		<stop  offset="1" style="stop-color:#99FBFF"/>
	</linearGradient>
	<path class="st1" d="M469.4,985.4c-91.3-61.7-124.6-174.7-77.6-263.8S562,574.9,679.4,587.2c78.6,8.2,149.1,43.7,211.4,84
		c62.3,40.2,119.7,85.9,187.1,120.2c103.2,52.5,228.2,75.4,348.8,64.2s236.1-56.7,322.3-126.7c63.9-52.1,97.9-118.8,94.3-192.7
		s-54.9-146.4-135-180.2c-80.1-33.8-186.4-23.9-250.5,28.1c-45,36.5-66.2,88.2-81,138.6c-14.8,50.5-24.9,102.7-53.8,148.9
		c-28.8,46.3-81.4,86.6-144.6,90.1c-85,4.6-153.7-56.4-193.6-118.3c-65.1-100.7-91.2-215.5-151-318.4
		C773.9,222.3,663.1,125.7,524.1,123c-106.6-2.1-203.4,51.6-277.7,114.3c-70.6,59.5-129,130-161.5,208.7
		c-32.4,78.8-37.7,166.2-5.5,245c31.2,76.2,94.5,140.2,156.6,202.4c37.7,37.8,76.4,76.2,126.8,102.1c50.4,26,115.6,37.7,170.1,18.2
		C503.2,1005,493.8,1001.8,469.4,985.4z"/>
	
		<linearGradient id="SVGID_2_" gradientUnits="userSpaceOnUse" x1="538.3437" y1="639.7485" x2="1492.3745" y2="639.7485" gradientTransform="matrix(0.6062 0.7953 -0.7953 0.6062 760.7346 -711.7483)">
		<stop  offset="0" style="stop-color:#99FBFF"/>
		<stop  offset="1" style="stop-color:#9999FF"/>
	</linearGradient>
	<path class="st2" d="M1352.5,631.8c1-19.6,0.1-39.6-0.7-58.9c-1.3-30.4-2.7-61.8,3.2-92.2c19.3-99.1,125.5-183.7,246.8-196.6
		l-0.8-5c-123.9,13.3-232.3,99.6-252.1,200.9c-6,30.8-4.7,62.5-3.3,93.2c0.8,19.2,1.7,39.1,0.7,58.5c-1.8,35.2-13.3,99.2-70.1,132
		c-44.1,25.4-122.3,29-186.3-13c-45.9-30.2-79-79.6-95.5-142.7c-9-34.4-12.9-70.3-16.7-104.8c-2.2-20.2-4.5-41-7.8-61.5
		c-12.1-75.3-36.3-135.4-74.1-184C849.6,198.2,781.1,157,708.1,144.8c-77.8-13.2-166.9,5.5-244.6,51.2
		c-71.6,42.1-125.3,99.8-172.7,156c-73.5,86.9-147.8,191.4-141.5,306c2.1,39.5,14.2,72,35.9,97c0.9,1,1.8,2,2.7,3
		c26.2,28.3,67,44.9,105,42.7c52.7-3.1,90.6-36.7,127.3-69.3c6.9-6.1,13.8-12.3,20.7-18.1c80.3-67.8,192.7-107.4,307.2-111.8
		c-5-1.5-10-3-15-4.3C622,604.3,514.3,644,436.4,709.8c-7,5.8-13.9,12.1-20.9,18.2c-35.8,31.8-72.8,64.8-123.1,67.6
		c-37.3,2.2-77.4-15-102.2-43.6c-21-24.1-32.7-55.9-34.8-94.3c-6.2-113.1,67.5-216.7,140.5-302.9C343,299,396.5,241.5,467.2,200
		c76.2-44.8,163.6-63.1,239.7-50.3c71.4,12.1,138.4,52.4,183.7,110.7c37.3,48,61.3,107.4,73.2,181.7c3.2,20.3,5.6,41.1,7.8,61.3
		c3.9,34.7,7.8,70.7,16.8,105.4c16.7,64.3,50.5,114.6,97.6,145.7c66.4,43.6,147.7,39.7,193.7,13.3
		C1338.8,733.8,1350.7,668,1352.5,631.8z"/>
	
		<linearGradient id="SVGID_3_" gradientUnits="userSpaceOnUse" x1="451.0617" y1="762.2784" x2="1033.5195" y2="762.2784" gradientTransform="matrix(0.4979 0.8672 -0.8672 0.4979 892.5081 -697.9932)">
		<stop  offset="0" style="stop-color:#9999FF"/>
		<stop  offset="1" style="stop-color:#99FBFF"/>
	</linearGradient>
	<path class="st3" d="M625.8,205.3c-7.9,40.4,23.4,79.6,61.3,106.3c37.9,26.6,83.4,45.6,119.8,73.7c36.4,28.1,63.6,70.1,49.2,109.4
		c-12.8,35.1-57.5,58.4-102,59.6c-44.6,1.3-87.7-16.5-119.7-42c-32.1-25.4-54.4-57.9-73.4-91c-19-33.1-35.2-67.3-57.3-99.1
		c-17.9-25.8-41.7-51-75.8-60.9c-28.3-8.3-62.6-5.8-84.9-22.2c-18.5-13.7-22.5-37.3-15.3-56.9s23.6-36.1,40.7-50.9
		c46-39.6,104.3-73,170.7-78.8c51.8-4.5,109.3,11.6,141.8,45.9c24.9,26.3,11.7,28.5-13.2,47.9C647.3,162.2,630.4,181.9,625.8,205.3z
		"/>
	<linearGradient id="SVGID_4_" gradientUnits="userSpaceOnUse" x1="529.9647" y1="344.9896" x2="741.5716" y2="344.9896">
		<stop  offset="0" style="stop-color:#9999FF"/>
		<stop  offset="1" style="stop-color:#99FBFF"/>
	</linearGradient>
	<path class="st4" d="M667,335.6c23.1,11,46.8,22.6,61.9,40.7s18.4,44.6,0.7,60.8c-19.4,17.9-56.3,15.8-79.6,1.3
		c-23.3-14.5-35.7-37.6-45-60.3c-9.3-22.7-16.7-46.5-33.5-66c-13.6-15.9-46.9-37.6-40.8-60.1c4.4-16.1,13.1-13.7,28.1-5.7
		c17.7,9.4,28.6,26.7,39.8,40.8C616.6,309.4,639.1,322.4,667,335.6z"/>
	
		<linearGradient id="SVGID_5_" gradientUnits="userSpaceOnUse" x1="566.2874" y1="1131.7576" x2="880.96" y2="1131.7576" gradientTransform="matrix(0.6062 0.7953 -0.7953 0.6062 760.7346 -711.7483)">
		<stop  offset="0" style="stop-color:#9999FF"/>
		<stop  offset="1" style="stop-color:#99FBFF"/>
	</linearGradient>
	<path class="st5" d="M373.6,502.4c-11.9,60,21.6,124.3-5.7,180.8c-11.2,23.2-34.5,44.1-64.5,48.7c-25.7,3.9-51.8-4.5-74.7-14.9
		c-38.2-17.3-72.6-41.1-96.1-71.3c-23.5-30.2-35.2-67.1-28.2-102.5c8.1-41,40.5-76.7,80-102.8c52.2-34.5,138.2-65.4,207.1-55.8
		c24.7,3.5,45,16.4,33.2,37.2C408,450.8,380.5,467.6,373.6,502.4z"/>
	<g>
		
			<linearGradient id="SVGID_6_" gradientUnits="userSpaceOnUse" x1="1306.1306" y1="211.123" x2="1723.1124" y2="211.123" gradientTransform="matrix(0.6062 0.7953 -0.7953 0.6062 760.7346 -711.7483)">
			<stop  offset="0" style="stop-color:#9999FF"/>
			<stop  offset="1" style="stop-color:#99FBFF"/>
		</linearGradient>
		<path class="st6" d="M1576.5,340.9c-39.9,13.4-81.1,27.4-111.2,52.8c-30.1,25.4-46.3,65.3-27.1,97c21.3,35.2,79.4,51.8,88.6,90.4
			c7.4,31.6-23.4,61-57.4,77c-34,16-73.4,24.2-104.3,44.1c-55.6,35.5-69.5,107.7-30,155.6c20.6-26.1,50.6-35.3,87.4-42.6
			c36.8-7.3,75-8.4,112.3-14.2c78.8-12.3,152.4-46.1,206.4-94.9c29.9-27.1,54.2-59.2,63.6-94.9c9.4-35.7,2.6-75.2-24.2-104.3
			c-37.4-40.9-108.1-57.6-135.9-103.4c-8.8-14.4-12.5-30.6-22.7-44.3C1611.7,345.4,1594.6,334.9,1576.5,340.9z"/>
		
			<linearGradient id="SVGID_7_" gradientUnits="userSpaceOnUse" x1="1319.8876" y1="190.2646" x2="1745.161" y2="190.2646" gradientTransform="matrix(0.6062 0.7953 -0.7953 0.6062 760.7346 -711.7483)">
			<stop  offset="0" style="stop-color:#9999FF"/>
			<stop  offset="1" style="stop-color:#99FBFF"/>
		</linearGradient>
		<path class="st7" d="M1488.4,394c-24.8,14.4-41.6,41.1-31.1,64.4c10.5,23.3,42.2,34.2,69.2,45.5c27.9,11.6,53.7,26.3,76.8,43.4
			c21.4,15.9,41.7,36.6,40.5,60.3c-1.4,27.9-33,49.3-65.6,57.2c-32.7,7.9-67.6,6.2-101.5,9.8c-29.4,3.1-58.7,10.4-82.4,25.1
			c-23.6,14.7-40.7,37.6-40.9,61.9c-0.4,38.9,42.9,70.9,89.3,78.9c46.4,8,94.4-2.8,138.7-16.4c41.6-12.8,82.9-28.7,114.4-54.5
			c31.5-25.8,51.8-63,43.7-98.9c-4.5-19.8-17.3-38.4-18.6-58.5c-1.7-25.8,15.3-49.8,20.1-75.3c7.4-39.1-15-79.2-49.7-106.8
			C1637.7,387.5,1556.2,354.8,1488.4,394z"/>
	</g>
</g>
<linearGradient id="SVGID_8_" gradientUnits="userSpaceOnUse" x1="528.4065" y1="806.415" x2="859.9753" y2="806.415">
	<stop  offset="0" style="stop-color:#D0D6D6"/>
	<stop  offset="1" style="stop-color:#3EFFD8"/>
</linearGradient>
<path class="st8" d="M703.5,753c21,7.9,17.9,27.2,33.7,38.5c24,17.2,75.8,7.6,105.4,21.5c14.4,6.7,20.8,18.8,15.6,29.3
	s-21.7,19-40.1,20.5c-31.2,2.6-58-12.7-89.1-14.8c-31.3-2.1-60.9,9.3-92.2,12.6c-32.6,3.4-67.9-3-89.1-17.6
	c-21.1-14.6-25.9-37.2-9.3-54.2c20.1-20.6,48.2-17.2,80.7-21.6C646.7,763.4,673.4,741.6,703.5,753z"/>
<linearGradient id="SVGID_9_" gradientUnits="userSpaceOnUse" x1="1077.38" y1="573.1515" x2="1215.2974" y2="573.1515">
	<stop  offset="0" style="stop-color:#95D3FF"/>
	<stop  offset="1" style="stop-color:#D0D6D6"/>
</linearGradient>
<path class="st9" d="M1211.1,526.5c-9.2-12.9-41.8-19.5-58.1-9c-14.9,9.6-7.4,25.3-17.9,36.7c-10.9,11.8-37.8,15.6-50.5,26.8
	c-9.4,8.2-9.2,19.4-2.1,28.2c22,27.4,88.4,36.9,98.4,3.2c4.4-14.8-0.4-21.8,11.3-36.9C1204.5,559.7,1223.8,544.5,1211.1,526.5z"/>
</svg>
