<?xml version="1.0"?>
<svg xmlns="http://www.w3.org/2000/svg" xmlns:xlink="http://www.w3.org/1999/xlink" xmlns:svgjs="http://svgjs.com/svgjs" version="1.1" width="30" height="30" x="0" y="0" viewBox="0 0 512 512" style="enable-background:new 0 0 512 512" xml:space="preserve" class=""><g><g xmlns="http://www.w3.org/2000/svg"><path d="m505.093 136.49-246-80c-2.011-.654-4.175-.654-6.186 0l-246 80c-4.118 1.34-6.907 5.179-6.907 9.51s2.789 8.17 6.907 9.51l119.093 38.729v71.761c0 3.344 1.671 6.466 4.453 8.32 2.553 1.702 63.232 41.68 125.266 41.68 62.589 0 123.275-39.978 125.828-41.68 2.782-1.854 4.453-4.977 4.453-8.32v-71.761l40-13.008v96.489c-11.639 4.128-20 15.243-20 28.28 0 12.214 7.341 22.739 17.838 27.414l-27.54 110.16c-1.577 6.314 3.207 12.426 9.702 12.426h60c6.508 0 11.276-6.123 9.702-12.426l-27.54-110.16c10.497-4.675 17.838-15.2 17.838-27.414 0-13.036-8.361-24.152-20-28.28v-102.993l59.093-19.217c4.119-1.34 6.907-5.179 6.907-9.51s-2.789-8.17-6.907-9.51zm-86.285 299.51 17.192-68.768 17.192 68.768zm-52.808-175.539c-14.599 8.817-62.778 35.539-110.281 35.539-46.916 0-95.112-26.732-109.719-35.543v-59.714l106.907 34.767c2.007.653 4.175.654 6.186 0l106.907-34.767zm-110-44.976c-29.055-9.449-179.205-58.278-213.665-69.485l213.665-69.484 213.665 69.484c-21.181 6.888-204.313 66.443-213.665 69.485z" fill="#9933ff" data-original="#000000" style="" class=""/></g></g></svg>
