<?xml version="1.0" encoding="utf-8"?>
<!-- Generator: Adobe Illustrator 25.2.3, SVG Export Plug-In . SVG Version: 6.00 Build 0)  -->
<svg version="1.1" id="Capa_1" xmlns="http://www.w3.org/2000/svg" xmlns:xlink="http://www.w3.org/1999/xlink" x="0px" y="0px"
	 viewBox="0 0 512 512" style="enable-background:new 0 0 512 512;" xml:space="preserve">
<style type="text/css">
	.st0{fill:#CAB4EF;}
</style>
<path class="st0" d="M252.5,15.4l52.8,145.7c2.3,6.2,6.7,11.2,12.4,13.7l132,58.3c18.6,8.2,18.6,37.4,0,45.6l-132,58.3
	c-5.7,2.5-10.1,7.4-12.4,13.7l-52.8,145.7c-7.5,20.6-33.9,20.6-41.3,0l-52.8-145.7c-2.3-6.2-6.7-11.2-12.4-13.7L14,278.8
	c-18.6-8.2-18.6-37.4,0-45.6l132-58.3c5.7-2.5,10.1-7.4,12.4-13.7l52.8-145.7C218.6-5.1,245-5.1,252.5,15.4z"/>
</svg>
